# xmcd
#
# Track frame offsets: 
#        150
#        12455
#        26017
#        38113
#        50602
#        62255
#        75796
#        89866
#        102764
#        115094
#        128310
#        138844
#        151021
#        163336
#        174946
#        188430
#
# Disc length: 2655 seconds
#
# Revision: 4
# Processed by: cddbd v1.5.2PL0 Copyright (c) Steve Scherf et al.
# Submitted via: ExactAudioCopyFreeDBPlugin 1.0
#
DISCID=b50a5d10
DTITLE=Various Artist - The Best of Chess Records
DYEAR=2008
DGENRE=Blues
TTITLE0=Chuck Berry - No Particular Place to Go
TTITLE1=Etta James - At  Last
TTITLE2=Little Walter - My Babe
TTITLE3=Muddy Waters - (I'm Your) Hoochie Coochie Man
TTITLE4=Etta James - I'd Rather Go Blind
TTITLE5=Bo Diddley - I'm a Man
TTITLE6=Howlin' Wolf - Smokestack Lightnin'
TTITLE7=Muddy Waters - Forty Days and Forty Nights
TTITLE8=Little Walter - Juke
TTITLE9=Etta James - All I Could Do is Cry
TTITLE10=Chuck Berry - Maybelline
TTITLE11=Muddy Waters - I Can't Be Satisfied
TTITLE12=Little Walter - Last Night
TTITLE13=Chuck Berry - Nadine
TTITLE14=Etta James - Trust in Me
TTITLE15=Chuck Berry - Promised Land
EXTD=YEAR: 2008
EXTT0=
EXTT1=
EXTT2=
EXTT3=
EXTT4=
EXTT5=
EXTT6=
EXTT7=
EXTT8=
EXTT9=
EXTT10=
EXTT11=
EXTT12=
EXTT13=
EXTT14=
EXTT15=
PLAYORDER=
